<?xml version="1.0" encoding="utf-8"?>
<!-- Generator: Adobe Illustrator 19.0.0, SVG Export Plug-In . SVG Version: 6.00 Build 0)  -->
<svg version="1.1" id="Layer_1" xmlns="http://www.w3.org/2000/svg" xmlns:xlink="http://www.w3.org/1999/xlink" x="0px" y="0px"
	 viewBox="0 0 99.4 97.7" style="enable-background:new 0 0 99.4 97.7;" xml:space="preserve">
<style type="text/css">
	.st0{fill:#FFFFFF;}
</style>
<g id="XMLID_1289_">
	<path id="XMLID_1294_" class="st0" d="M64.5,26H34.9c-4.7,0-8.6,3.8-8.6,8.4v29.1c0,4.6,3.8,8.4,8.6,8.4h29.6
		c4.7,0,8.6-3.8,8.6-8.4V34.4C73.1,29.8,69.3,26,64.5,26z M49.7,64.1c-8.5,0-15.4-6.8-15.4-15.1c0-8.3,6.9-15.1,15.4-15.1
		c8.5,0,15.4,6.8,15.4,15.1C65.1,57.3,58.2,64.1,49.7,64.1z M65.6,37c-2,0-3.6-1.6-3.6-3.6s1.6-3.6,3.6-3.6c2,0,3.6,1.6,3.6,3.6
		C69.3,35.4,67.6,37,65.6,37z"/>
	<path id="XMLID_1284_" class="st0" d="M49.7,40.2c-4.9,0-8.9,3.9-8.9,8.7c0,4.8,4,8.7,8.9,8.7c4.9,0,8.9-3.9,8.9-8.7
		C58.6,44.1,54.6,40.2,49.7,40.2z"/>
	<path id="XMLID_1290_" class="st0" d="M49.7,0C22.3,0,0,21.9,0,48.8c0,27,22.3,48.8,49.7,48.8s49.7-21.9,49.7-48.8S77.2,0,49.7,0z
		 M79.6,63.5c0,8.2-6.8,14.8-15.1,14.8H34.9c-8.3,0-15.1-6.6-15.1-14.8V34.4c0-8.2,6.8-14.8,15.1-14.8h29.6
		c8.3,0,15.1,6.6,15.1,14.8V63.5z"/>
</g>
</svg>
