<?xml version="1.0" encoding="utf-8"?>
<!-- Generator: Adobe Illustrator 19.0.0, SVG Export Plug-In . SVG Version: 6.00 Build 0)  -->
<svg version="1.1" id="Layer_1" xmlns="http://www.w3.org/2000/svg" xmlns:xlink="http://www.w3.org/1999/xlink" x="0px" y="0px"
	 viewBox="0 0 99.4 97.7" style="enable-background:new 0 0 99.4 97.7;" xml:space="preserve">
<style type="text/css">
	.st0{fill:#FFFFFF;}
</style>
<g id="XMLID_1278_">
	<g id="XMLID_1279_">
		<path id="XMLID_1280_" class="st0" d="M49.7,0C22.3,0,0,21.9,0,48.8c0,26.9,22.3,48.8,49.7,48.8c27.4,0,49.7-21.9,49.7-48.8
			C99.4,21.9,77.1,0,49.7,0z M62.1,50.5H54c0,12.7,0,28.3,0,28.3H42c0,0,0-15.5,0-28.3h-5.7v-10H42v-6.5c0-4.6,2.2-11.9,12.1-11.9
			l8.9,0v9.7c0,0-5.4,0-6.4,0c-1,0-2.5,0.5-2.5,2.7v5.9h9.1L62.1,50.5z"/>
	</g>
</g>
</svg>
