<?xml version="1.0" encoding="utf-8"?>
<!-- Generator: Adobe Illustrator 19.0.0, SVG Export Plug-In . SVG Version: 6.00 Build 0)  -->
<svg version="1.1" id="Layer_1" xmlns="http://www.w3.org/2000/svg" xmlns:xlink="http://www.w3.org/1999/xlink" x="0px" y="0px"
	 viewBox="-216 236.9 498.6 89.1" style="enable-background:new -216 236.9 498.6 89.1;" xml:space="preserve">
<style type="text/css">
	.st0{fill:#370067;}
	.st1{fill:#AB2E40;}
	.st2{fill:#040404;}
</style>
<g id="XMLID_4_">
	<path id="XMLID_56_" class="st0" d="M-168.5,236.9c0,4.5,0,9.1,0,13.8c5.7,0,11.3,0,17,0c0,1.2,0,2.2,0,3.2c0,2.1,1.4,3.5,3.5,3.5
		c1,0,2,0,3.1,0c0,2.2,0,4.4,0,6.7c-18,0-36,0-54.1,0c0-2.2,0-4.4,0-6.7c1.1,0,2.1,0,3.2,0c2.1,0,3.5-1.4,3.5-3.5c0-1,0-2,0-3.2
		c5.6,0,11.2,0,17,0c0-4.7,0-9.3,0-13.8C-173.1,236.9-170.8,236.9-168.5,236.9z"/>
	<path id="XMLID_55_" class="st0" d="M-146.8,326c-4.1-4.2-8.2-8.3-12.3-12.5c-0.3-0.3-0.8-0.6-1.1-0.9c0.1-0.1,0.1-0.2,0.2-0.3
		c10.7,0,21.4,0,32.2,0c0,4.5,0,9.1,0,13.7C-134.2,326-140.5,326-146.8,326z"/>
	<path id="XMLID_54_" class="st0" d="M-216,326c0-4.6,0-9.1,0-13.7c10.8,0,21.5,0,32.4,0c-4.6,4.7-9,9.2-13.4,13.7
		C-203.3,326-209.7,326-216,326z"/>
	<path id="XMLID_53_" class="st1" d="M-129.9,236.9c1.9,0.5,3.7,1.2,5.2,2.5c3.3,2.9,4.5,7.7,2.8,11.7c-1.6,4-5.8,6.6-10.1,6.3
		c-4.3-0.3-8-3.4-9.1-7.6c-1.4-5.4,1.8-11.1,7.2-12.6c0.5,0,0.9-0.2,1.3-0.3C-131.7,236.9-130.8,236.9-129.9,236.9z"/>
	<path id="XMLID_52_" class="st0" d="M-187.3,326c0.9-1,1.8-2,2.8-3c3.2-3.3,6.5-6.6,9.7-9.9c0.6-0.6,1.2-0.8,2-0.9
		c2-0.2,3.4,0.5,4.8,2c3.5,3.7,7.1,7.3,10.6,10.9c0.3,0.3,0.5,0.6,0.8,0.9C-166.8,326-177,326-187.3,326z"/>
	<path id="XMLID_50_" class="st0" d="M-155,271.1c0,2.3,0,4.4,0,6.7c3.4,0,6.7,0,10.2,0c0,1.2,0,2.2,0,3.2c0,2.2,1.4,3.6,3.6,3.6
		c1,0,2,0,3.1,0c0,2.3,0,4.4,0,6.7c-22.5,0-45,0-67.7,0c0-2.2,0-4.4,0-6.7c1,0,1.9,0,2.9,0c2.4,0,3.8-1.3,3.8-3.8c0-1,0-1.9,0-3
		c3.4,0,6.7,0,10.1,0c0-2.3,0-4.5,0-6.7C-177.6,271.1-166.3,271.1-155,271.1z"/>
	<path id="XMLID_49_" class="st0" d="M-202.4,305.3c0-2.2,0-4.4,0-6.6c6.7,0,13.4,0,20.2,0c0,2.2,0,4.4,0,6.6
		C-188.9,305.3-195.6,305.3-202.4,305.3z"/>
	<path id="XMLID_48_" class="st0" d="M-161.7,305.3c0-2.2,0-4.4,0-6.6c6.7,0,13.4,0,20.2,0c0,2.2,0,4.4,0,6.6
		C-148.2,305.3-154.9,305.3-161.7,305.3z"/>
	<path id="XMLID_47_" class="st0" d="M-168.6,298.7c0,2.3,0,4.4,0,6.6c-2.2,0-4.4,0-6.6,0c0-2.2,0-4.4,0-6.6
		C-173.1,298.7-170.9,298.7-168.6,298.7z"/>
</g>
<g id="XMLID_5_">
	<path id="XMLID_6_" class="st1" d="M-89.4,298.2h-15l-2.5,7.2h-7.9l13.5-37.7h8.8l13.5,37.7h-8L-89.4,298.2z M-96.9,276.4
		l-5.5,15.8h10.9L-96.9,276.4z"/>
	<path id="XMLID_9_" class="st1" d="M-55.1,305.7c-10.6,0-19.3-8-19.3-19.3c0-11.3,8.7-19.3,19.3-19.3c10.7,0,19.3,8,19.3,19.3
		C-35.9,297.7-44.4,305.7-55.1,305.7z M-55.1,299c6.8,0,11.5-4.9,11.5-12.6c0-7.7-4.7-12.5-11.5-12.5c-6.9,0-11.5,4.8-11.5,12.5
		C-66.7,294.1-62,299-55.1,299z"/>
	<path id="XMLID_12_" class="st1" d="M-29,267.7h8.6l12,28l12-28h8.5v37.7H4.5v-24.5l-10.1,24.5h-5.7l-10.2-24.5v24.5H-29V267.7z"/>
	<path id="XMLID_14_" class="st1" d="M38.2,305.7c-10.6,0-19.3-8-19.3-19.3c0-11.3,8.7-19.3,19.3-19.3c10.7,0,19.3,8,19.3,19.3
		S48.9,305.7,38.2,305.7z M38.2,299c6.8,0,11.5-4.9,11.5-12.6c0-7.7-4.7-12.5-11.5-12.5c-6.9,0-11.5,4.8-11.5,12.5
		S31.3,299,38.2,299z"/>
	<path id="XMLID_17_" class="st1" d="M78.4,267.7c9.1,0,13.6,5.2,13.6,11.5c0,4.6-2.5,9.2-8.6,10.8l9,15.3h-8.7l-8.3-14.7h-3.6v14.7
		h-7.6v-37.6H78.4z M78.2,273.9h-6.3V285h6.3c4.2,0,6.1-2.2,6.1-5.6C84.3,276.1,82.4,273.9,78.2,273.9z"/>
	<path id="XMLID_20_" class="st1" d="M100.1,267.7h7.6v37.7h-7.6V267.7z"/>
	<path id="XMLID_22_" class="st2" d="M163.7,278.6h-4.4c-2.1-4.9-6.7-8-12.7-8c-8.4,0-14.8,6-14.8,15.8s6.4,15.9,14.8,15.9
		c7.9,0,13.8-5.3,14.4-13.9h-15.9v-3.1H165v2.8c-0.6,10-8,17.6-18.3,17.6c-10.6,0-18.7-7.9-18.7-19.3c0-11.3,8.1-19.3,18.7-19.3
		C154.7,267.2,161,271.5,163.7,278.6z"/>
	<path id="XMLID_24_" class="st2" d="M172.9,267.6h3.8v23.7c0,7.8,4.1,11,10,11s9.9-3.2,9.9-11v-23.7h3.8v23.7
		c0,10-6,14.4-13.7,14.4s-13.7-4.4-13.7-14.4L172.9,267.6L172.9,267.6z"/>
	<path id="XMLID_26_" class="st2" d="M210,267.6h3.8v37.7H210V267.6z"/>
	<path id="XMLID_28_" class="st2" d="M254.7,286.6c0,11.7-7.4,18.8-20,18.8h-11.2v-37.8h11.2C247.3,267.6,254.7,274.8,254.7,286.6z
		 M234.7,302.2c10.7,0,16.1-5.9,16.1-15.6c0-9.8-5.5-15.8-16.1-15.8h-7.4v31.5L234.7,302.2L234.7,302.2z"/>
	<path id="XMLID_31_" class="st2" d="M282.6,270.7h-15.9v14.1H281v3.1h-14.3v14.3h15.9v3.1h-19.7v-37.7h19.7L282.6,270.7
		L282.6,270.7z"/>
</g>
</svg>
